<?xml version="1.0" encoding="utf-8"?>
<svg version="1.1" id="Capa_1" xmlns="http://www.w3.org/2000/svg" xmlns:xlink="http://www.w3.org/1999/xlink" x="0px" y="0px"
	 viewBox="150 400 295.3 45.9" style="enable-background:new 0 0 595.3 841.9;" xml:space="preserve">
<style type="text/css">
	.st0{fill:#22B4B6;}
	.st1{fill:#FFFFFF;}
</style>
<path class="st0" d="M191.1,401.6V428l-18.7-18.7l-5.3,5.4l18.7,18.7h-26.4v7.6h35.4h0h35.6v-7.6H204l18.7-18.7l-5.3-5.4L198.6,428
	v-26.5H191.1z"/>
<path class="st1" d="M430.6,430.3l0,1.8c-0.8,0.1-1.6,0.2-2.2,0.4c-0.6,0.2-1.2,0.3-1.7,0.6c-0.5,0.2-0.9,0.5-1.2,0.8
	c-0.3,0.3-0.5,0.6-0.7,1c-0.1,0.4-0.2,0.8-0.2,1.3c0,0.5,0.1,1,0.3,1.3c0.2,0.4,0.4,0.6,0.8,0.8c0.3,0.2,0.7,0.3,1.2,0.3
	c0.6,0,1.1-0.1,1.5-0.4c0.4-0.3,0.8-0.7,1.2-1.3c0.4-0.6,0.7-1.2,0.9-2l0.2,2.1c-0.3,0.8-0.7,1.5-1.3,2.1c-0.5,0.6-1.1,1-1.8,1.3
	c-0.7,0.3-1.5,0.4-2.4,0.4c-1,0-2-0.2-2.7-0.5c-0.8-0.4-1.4-0.9-1.8-1.5c-0.4-0.7-0.6-1.5-0.6-2.5c0-0.9,0.2-1.7,0.7-2.4
	s1.1-1.2,2-1.7c0.9-0.5,2-0.9,3.3-1.2C427.2,430.8,428.7,430.5,430.6,430.3z M430.2,440.6v-3.4h-0.4v-8.9c0-0.7-0.1-1.3-0.3-1.7
	c-0.2-0.4-0.5-0.8-0.9-0.9c-0.4-0.2-0.9-0.3-1.4-0.3c-0.8,0-1.5,0.2-2.1,0.6c-0.5,0.4-1,0.8-1.3,1.3c-0.1-0.2-0.2-0.5-0.2-0.7
	c0-0.2,0.1-0.4,0.2-0.6c0.1-0.2,0.3-0.4,0.5-0.5c0.2-0.1,0.4-0.2,0.7-0.3v3.5h-4v-3.5c0.3-0.3,0.8-0.6,1.4-0.9
	c0.6-0.3,1.4-0.6,2.3-0.9c0.9-0.2,1.9-0.4,3.1-0.4c1,0,1.9,0.1,2.7,0.3c0.8,0.2,1.6,0.5,2.2,1c0.6,0.4,1.1,1,1.5,1.7
	c0.4,0.7,0.5,1.5,0.5,2.5v9c0,0.3,0.1,0.5,0.2,0.6c0.2,0.1,0.4,0.2,0.6,0.3c0.3,0.1,0.6,0.1,1,0.1h0.1v1.8H430.2z"/>
<path class="st1" d="M407,425.6v-2h0.1c0.5,0,1,0,1.3-0.1c0.4-0.1,0.7-0.2,0.9-0.5c0.2-0.2,0.3-0.5,0.3-1l2.7,1.4h6.2v2.1H407z
	 M414.4,435.1c0,0.9,0.1,1.6,0.3,2.1c0.2,0.5,0.5,0.8,0.9,1.1c0.4,0.2,0.8,0.3,1.3,0.3c0.4,0,0.8,0,1.2-0.1c0.4-0.1,0.7-0.2,0.9-0.2
	v2.2c-0.2,0.1-0.4,0.2-0.7,0.3c-0.3,0.1-0.7,0.2-1.1,0.2c-0.4,0.1-0.9,0.1-1.4,0.1c-1.2,0-2.2-0.2-3.2-0.5c-0.9-0.4-1.7-1-2.2-1.8
	c-0.6-0.9-0.8-2-0.8-3.5V424l0.3-0.2l0.1-4.9h4.6V435.1z"/>
<path class="st1" d="M395.4,432.1c0,1.1,0.1,2,0.3,2.9c0.2,0.8,0.5,1.5,0.9,2c0.4,0.5,0.9,0.9,1.4,1.2c0.6,0.3,1.2,0.4,2,0.4
	c0.8,0,1.4-0.2,2-0.5c0.6-0.3,1.1-0.7,1.5-1.2c0.4-0.5,0.8-1,1-1.6l1.8,1.3c-0.4,0.8-0.9,1.6-1.6,2.2c-0.6,0.6-1.4,1.1-2.3,1.5
	s-1.9,0.5-3.2,0.5c-1.8,0-3.3-0.3-4.7-1c-1.3-0.7-2.4-1.7-3.1-3c-0.7-1.3-1.1-2.9-1.1-4.7s0.4-3.4,1.1-4.7c0.7-1.3,1.7-2.4,3-3.1
	c1.3-0.7,2.7-1.1,4.3-1.1c1.2,0,2.3,0.2,3.3,0.6c1,0.4,1.8,1,2.4,1.8c0.7,0.8,1.2,1.8,1.5,3c0.4,1.2,0.5,2.6,0.5,4.3h-12v-2.1h8.1
	l-0.8,0.8c0-1.2-0.1-2.2-0.2-2.9c-0.1-0.8-0.3-1.4-0.6-1.9c-0.2-0.5-0.6-0.8-0.9-1c-0.4-0.2-0.8-0.3-1.3-0.3c-0.5,0-1,0.1-1.4,0.4
	c-0.4,0.2-0.8,0.6-1.1,1.2c-0.3,0.6-0.6,1.3-0.7,2.1C395.5,429.9,395.4,430.9,395.4,432.1z"/>
<path class="st1" d="M381.3,440.9c-0.9,0-1.7-0.1-2.4-0.4c-0.7-0.3-1.4-0.7-1.9-1.2c-0.6-0.5-1.1-1.2-1.6-2l0.2-3.5
	c0.4,1,0.9,1.8,1.3,2.5c0.4,0.7,0.9,1.2,1.5,1.5c0.5,0.4,1.1,0.5,1.8,0.5c0.6,0,1.1-0.1,1.5-0.4c0.4-0.3,0.8-0.7,1.1-1.3
	c0.3-0.6,0.5-1.2,0.6-2c0.2-0.8,0.2-1.7,0.2-2.8c0-1-0.1-1.9-0.2-2.7c-0.1-0.8-0.3-1.4-0.6-1.9c-0.3-0.5-0.6-0.9-1-1.2
	c-0.4-0.3-0.9-0.4-1.5-0.4c-0.6,0-1.2,0.2-1.8,0.5c-0.6,0.3-1.1,0.9-1.6,1.6c-0.5,0.7-1,1.6-1.5,2.7l0-2.9c0.6-1,1.2-1.9,1.7-2.5
	c0.6-0.7,1.2-1.2,1.9-1.5c0.7-0.3,1.5-0.5,2.5-0.5c1.4,0,2.7,0.4,3.7,1.1c1.1,0.7,1.9,1.7,2.5,3c0.6,1.3,0.9,2.9,0.9,4.7
	c0,1.8-0.3,3.4-1,4.8c-0.6,1.3-1.5,2.4-2.6,3.1C384.1,440.5,382.8,440.9,381.3,440.9z M371.5,419.1c0-0.3-0.1-0.5-0.2-0.6
	c-0.1-0.2-0.3-0.3-0.5-0.4c-0.2-0.1-0.5-0.2-0.9-0.3l-0.3-0.1V416h6.9v20.8l-0.5,0.3l-1.4,3.5h-3V419.1z"/>
<path class="st1" d="M365.9,436.2c0-0.5-0.1-0.9-0.3-1.2c-0.2-0.3-0.5-0.6-0.9-0.8c-0.4-0.2-0.8-0.4-1.3-0.6
	c-0.5-0.2-1.1-0.3-1.6-0.5c-0.7-0.2-1.3-0.4-2-0.6c-0.6-0.2-1.2-0.6-1.8-0.9c-0.5-0.4-1-0.8-1.3-1.4c-0.3-0.6-0.5-1.3-0.5-2.1
	c0-1,0.2-1.8,0.7-2.5c0.5-0.7,1.2-1.3,2.1-1.7c0.9-0.4,2-0.6,3.2-0.6c1,0,1.8,0.1,2.5,0.2c0.7,0.1,1.3,0.3,1.8,0.6
	c0.5,0.2,0.8,0.4,1.1,0.6v3.5h-2.7v-3.1c0.2,0,0.4,0,0.6,0.1c0.2,0.1,0.3,0.2,0.4,0.3c0.1,0.1,0.1,0.3,0.2,0.5c0,0.2,0,0.4,0,0.6
	c-0.2-0.4-0.6-0.7-0.9-0.9c-0.4-0.2-0.8-0.4-1.3-0.5c-0.5-0.1-1-0.2-1.5-0.2c-1.1,0-2,0.3-2.5,0.8c-0.6,0.5-0.8,1.1-0.8,1.9
	c0,0.5,0.1,0.9,0.4,1.2c0.2,0.3,0.6,0.6,1,0.8c0.4,0.2,0.9,0.4,1.4,0.6c0.5,0.2,1.1,0.3,1.7,0.5c0.6,0.2,1.3,0.4,1.9,0.6
	c0.6,0.2,1.2,0.5,1.7,0.9c0.5,0.4,0.9,0.8,1.2,1.4c0.3,0.5,0.5,1.2,0.5,2c0,1-0.3,1.9-0.8,2.6c-0.5,0.8-1.2,1.4-2.2,1.8
	c-1,0.4-2.1,0.7-3.4,0.7c-1,0-1.9-0.1-2.8-0.3c-0.8-0.2-1.5-0.4-2.1-0.7c-0.6-0.3-1.2-0.6-1.7-0.9v-3.7h2.8v4.1
	c-0.3-0.2-0.6-0.4-0.7-0.6c-0.2-0.2-0.3-0.4-0.4-0.6c-0.1-0.2-0.1-0.4-0.1-0.5c0-0.2,0.1-0.4,0.1-0.6c0.4,0.4,0.8,0.8,1.2,1.1
	c0.5,0.3,1,0.5,1.6,0.6c0.6,0.1,1.2,0.2,1.9,0.2c0.8,0,1.5-0.1,2-0.3c0.6-0.2,1-0.6,1.3-1C365.7,437.4,365.9,436.8,365.9,436.2z"/>
<path class="st1" d="M342.2,432.2c0,1.1,0.1,2.1,0.4,3c0.3,0.9,0.6,1.6,1.1,2.2c0.5,0.6,1,1,1.7,1.3c0.6,0.3,1.4,0.4,2.1,0.4
	c0.8,0,1.6-0.2,2.2-0.5c0.6-0.3,1.1-0.8,1.6-1.3c0.4-0.5,0.8-1.1,1.1-1.6l1.4,1.2c-0.4,0.8-0.9,1.4-1.5,2c-0.6,0.6-1.3,1.1-2.1,1.4
	c-0.8,0.3-1.8,0.5-2.8,0.5c-1.6,0-3-0.3-4.2-1c-1.2-0.7-2.2-1.7-2.9-3c-0.7-1.3-1.1-2.9-1.1-4.7s0.3-3.4,1-4.7
	c0.7-1.3,1.6-2.4,2.8-3.1c1.2-0.7,2.5-1.1,3.9-1.1c1.1,0,2.1,0.2,3,0.6c0.9,0.4,1.6,0.9,2.2,1.7c0.6,0.8,1.1,1.7,1.4,2.9
	c0.3,1.2,0.5,2.6,0.5,4.2h-12.4v-1.7h10.2l-0.9,0.7c0-1.2-0.1-2.2-0.3-3c-0.2-0.8-0.4-1.5-0.7-2c-0.3-0.5-0.7-0.9-1.2-1.2
	c-0.5-0.3-1.1-0.4-1.7-0.4s-1.3,0.2-1.9,0.5c-0.6,0.3-1,0.8-1.5,1.4c-0.4,0.6-0.8,1.3-1,2.2C342.3,430,342.2,431,342.2,432.2z"/>
<path class="st1" d="M338,423.3v2.9c-0.2-0.1-0.3-0.1-0.5-0.1c-0.2,0-0.4-0.1-0.6-0.1c-0.2,0-0.4,0-0.7,0c-0.5,0-1,0.1-1.4,0.2
	c-0.4,0.2-0.8,0.4-1.1,0.7c-0.3,0.3-0.6,0.7-0.9,1.2c-0.3,0.5-0.5,1-0.8,1.7l0-2.1c0.3-0.9,0.7-1.7,1.2-2.4c0.5-0.7,1-1.2,1.6-1.6
	c0.6-0.4,1.4-0.6,2.2-0.6c0.2,0,0.5,0,0.7,0C337.8,423.3,337.9,423.3,338,423.3z M327,440.6v-1.4h0c0.7,0,1.3-0.1,1.8-0.2
	c0.5-0.2,0.7-0.5,0.7-1v-11.4c0-0.3-0.1-0.6-0.3-0.8c-0.2-0.2-0.4-0.3-0.7-0.4c-0.3-0.1-0.7-0.2-1.2-0.3L327,425v-1.4h5.2v4.6
	l0.3-0.3v10.3c0,0.3,0.1,0.5,0.4,0.7c0.3,0.1,0.6,0.2,1,0.3c0.4,0,0.8,0.1,1.1,0.1h0.5v1.4H327z"/>
<path class="st1" d="M325,432.1c0,1.8-0.4,3.3-1.1,4.6c-0.7,1.3-1.7,2.4-2.9,3.1c-1.2,0.7-2.6,1.1-4.3,1.1c-1.6,0-3-0.4-4.3-1.1
	c-1.2-0.7-2.2-1.8-2.9-3.1c-0.7-1.3-1-2.9-1-4.6c0-1.3,0.2-2.5,0.6-3.6c0.4-1.1,1-2,1.7-2.8c0.8-0.8,1.6-1.4,2.6-1.8
	c1-0.4,2.1-0.6,3.3-0.6c1.2,0,2.3,0.2,3.3,0.6c1,0.4,1.9,1,2.6,1.8c0.8,0.8,1.3,1.7,1.7,2.8C324.8,429.6,325,430.7,325,432.1z
	 M311.6,432.1c0,1.4,0.2,2.7,0.6,3.8c0.4,1.1,1,1.9,1.8,2.5c0.8,0.6,1.7,0.8,2.8,0.8c1.1,0,2-0.3,2.8-0.8c0.8-0.6,1.3-1.4,1.7-2.5
	c0.4-1.1,0.6-2.3,0.6-3.8s-0.2-2.7-0.6-3.7c-0.4-1.1-1-1.9-1.7-2.5c-0.8-0.6-1.7-0.9-2.8-0.9c-1.1,0-2,0.3-2.8,0.9
	c-0.8,0.6-1.3,1.4-1.8,2.5C311.8,429.4,311.6,430.6,311.6,432.1z"/>
<path class="st1" d="M296.5,425.3v-1.6h0.2c0.6,0,1.2,0,1.6-0.1c0.4-0.1,0.8-0.3,1-0.5s0.4-0.6,0.4-1.1l2,1.6h5.4v1.7H296.5z
	 M302.3,435.2c0,0.9,0.1,1.7,0.3,2.2c0.2,0.6,0.6,1,1,1.2c0.4,0.2,1,0.4,1.5,0.4c0.4,0,0.9,0,1.2-0.1c0.4-0.1,0.7-0.2,1-0.3v1.8
	c-0.2,0.1-0.4,0.2-0.7,0.2c-0.3,0.1-0.6,0.2-0.9,0.2c-0.3,0-0.6,0.1-1,0.1c-1,0-1.9-0.2-2.7-0.5c-0.8-0.4-1.5-0.9-2-1.8
	c-0.5-0.8-0.8-2-0.8-3.4V424l0.3-0.2l0-4.8h2.6V435.2z"/>
<path class="st1" d="M289.2,439.1c0.9,0,1.7-0.2,2.4-0.5c0.7-0.4,1.2-0.8,1.7-1.3c0.5-0.6,0.9-1.1,1.2-1.6l1.4,1.2
	c-0.4,0.8-1,1.5-1.6,2.1c-0.6,0.6-1.3,1.1-2.2,1.5c-0.8,0.4-1.8,0.5-3,0.5c-1.6,0-3.1-0.4-4.3-1.1c-1.2-0.7-2.2-1.8-2.9-3.1
	c-0.7-1.3-1-2.9-1-4.7c0-1.8,0.4-3.4,1.1-4.7c0.7-1.3,1.7-2.3,3-3c1.3-0.7,2.8-1.1,4.4-1.1c1,0,1.9,0.1,2.7,0.3
	c0.8,0.2,1.5,0.5,2.1,0.8c0.6,0.3,1,0.6,1.3,0.9v4.1h-2.8v-3.9c0.2,0,0.5,0.1,0.6,0.2c0.2,0.1,0.4,0.3,0.5,0.5
	c0.2,0.2,0.3,0.4,0.3,0.6c0.1,0.2,0.1,0.5,0,0.7c-0.4-0.8-1-1.4-1.9-1.8c-0.8-0.5-1.8-0.7-2.9-0.7c-1.2,0-2.2,0.3-3,0.9
	c-0.8,0.6-1.4,1.4-1.8,2.5c-0.4,1.1-0.6,2.3-0.6,3.8c0,1.1,0.1,2.1,0.3,3c0.2,0.9,0.6,1.6,1,2.2c0.4,0.6,1,1.1,1.7,1.4
	C287.6,439,288.3,439.1,289.2,439.1z"/>
<path class="st1" d="M266.9,432.2c0,1.1,0.1,2.1,0.4,3c0.3,0.9,0.6,1.6,1.1,2.2c0.5,0.6,1,1,1.7,1.3c0.6,0.3,1.4,0.4,2.1,0.4
	c0.8,0,1.6-0.2,2.2-0.5c0.6-0.3,1.1-0.8,1.6-1.3c0.4-0.5,0.8-1.1,1.1-1.6l1.4,1.2c-0.4,0.8-0.9,1.4-1.5,2c-0.6,0.6-1.3,1.1-2.1,1.4
	c-0.8,0.3-1.8,0.5-2.8,0.5c-1.6,0-3-0.3-4.2-1c-1.2-0.7-2.2-1.7-2.9-3c-0.7-1.3-1.1-2.9-1.1-4.7s0.3-3.4,1-4.7
	c0.7-1.3,1.6-2.4,2.8-3.1c1.2-0.7,2.4-1.1,3.9-1.1c1.1,0,2.1,0.2,3,0.6c0.9,0.4,1.6,0.9,2.2,1.7c0.6,0.8,1.1,1.7,1.4,2.9
	c0.3,1.2,0.5,2.6,0.5,4.2h-12.4v-1.7h10.2l-0.9,0.7c0-1.2-0.1-2.2-0.3-3c-0.2-0.8-0.4-1.5-0.7-2c-0.3-0.5-0.7-0.9-1.2-1.2
	c-0.5-0.3-1.1-0.4-1.7-0.4s-1.3,0.2-1.9,0.5c-0.6,0.3-1,0.8-1.5,1.4c-0.4,0.6-0.8,1.3-1,2.2C267,430,266.9,431,266.9,432.2z"/>
<path class="st1" d="M260,416v22c0,0.5,0.2,0.8,0.7,1c0.5,0.2,1.1,0.2,1.8,0.2h0.1v1.4h-8v-1.4h0.1c0.7,0,1.3-0.1,1.8-0.2
	c0.5-0.2,0.7-0.5,0.7-1v-19c0-0.3-0.1-0.6-0.2-0.8c-0.2-0.2-0.4-0.3-0.7-0.4c-0.3-0.1-0.7-0.2-1.3-0.3l-0.3-0.1V416H260z"/>
</svg>
