<svg width="36" height="36" viewBox="0 0 36 36" fill="none" xmlns="http://www.w3.org/2000/svg">
<g clip-path="url(#clip0_1026_38590)">
<path fill-rule="evenodd" clip-rule="evenodd" d="M0.428295 29.1796L3.70094 26.8987C1.99511 24.3543 1.00008 21.2934 1.00008 18C1.00008 9.16344 8.16352 2 17.0001 2C22.3253 2 27.0429 4.60153 29.9513 8.603L33.4283 6.17961C33.8814 5.86382 34.5047 5.97512 34.8205 6.42822C35.0917 6.81729 35.0479 7.33188 34.7432 7.66949L24.3482 14.946L16.4845 20.4268C16.4829 20.436 16.4811 20.4452 16.4792 20.4543L15.3425 21.25H15.3033L12.8219 22.9795C12.8295 22.9858 12.8371 22.9922 12.8447 22.9985L11.161 24.177C11.1529 24.1694 11.1448 24.1617 11.1367 24.154L6.56882 27.3377C6.57871 27.3487 6.58861 27.3598 6.59854 27.3708L4.94916 28.5253C4.93852 28.5132 4.9279 28.501 4.91729 28.4888L1.57188 30.8204C1.11879 31.1362 0.495482 31.0249 0.179689 30.5718C-0.136103 30.1187 -0.0247984 29.4954 0.428295 29.1796ZM6.42025 30.0031C9.24036 32.4907 12.944 34 17.0001 34C25.8366 34 33.0001 26.8366 33.0001 18C33.0001 15.9411 32.6112 13.973 31.9029 12.1652L30.2095 13.3506C30.7216 14.8053 31.0001 16.3701 31.0001 18C31.0001 25.732 24.7321 32 17.0001 32C13.6258 32 10.5304 30.8063 8.11303 28.8181L6.42025 30.0031ZM12.9157 25.4562C14.1278 26.1216 15.5198 26.5 17.0001 26.5C19.1764 26.5 21.1638 25.6808 22.667 24.3354C23.0785 23.9671 23.1135 23.3349 22.7452 22.9234C22.3769 22.5118 21.7447 22.4768 21.3332 22.8451C20.1825 23.875 18.6655 24.5 17.0001 24.5C16.2346 24.5 15.5 24.3677 14.818 24.1247L12.9157 25.4562ZM17.0001 4C9.26809 4 3.00008 10.268 3.00008 18C3.00008 20.8681 3.86252 23.5347 5.34222 25.7548L9.85655 22.6084C9.57994 22.1805 9.34072 21.7262 9.14353 21.25H8.00008C7.44779 21.25 7.00008 20.8023 7.00008 20.25C7.00008 19.6977 7.44779 19.25 8.00008 19.25H8.59134C8.53122 18.842 8.50008 18.4247 8.50008 18C8.50008 17.5753 8.53122 17.158 8.59134 16.75H8.00008C7.44779 16.75 7.00008 16.3023 7.00008 15.75C7.00008 15.1977 7.44779 14.75 8.00008 14.75H9.14353C10.4198 11.6681 13.4568 9.5 17.0001 9.5C19.1764 9.5 21.1638 10.3192 22.667 11.6646C23.0785 12.0329 23.1135 12.6651 22.7452 13.0766C22.3769 13.4882 21.7447 13.5232 21.3332 13.1549C20.1825 12.125 18.6655 11.5 17.0001 11.5C14.5942 11.5 12.4935 12.8071 11.3697 14.75H15.5001C16.0524 14.75 16.5001 15.1977 16.5001 15.75C16.5001 16.3023 16.0524 16.75 15.5001 16.75H10.6202C10.5414 17.1545 10.5001 17.5724 10.5001 18C10.5001 18.4276 10.5414 18.8455 10.6202 19.25H14.6751L28.31 9.74692C25.7634 6.26304 21.646 4 17.0001 4ZM11.3697 21.25H11.8056L11.4989 21.4638C11.4545 21.3934 11.4114 21.3221 11.3697 21.25Z" fill="#14B8B8"/>
</g>
<defs>
<clipPath id="clip0_1026_38590">
<rect width="36" height="36" fill="white"/>
</clipPath>
</defs>
</svg>
